<svg xmlns="http://www.w3.org/2000/svg"  viewBox="0 0 100 100" width="200px" height="200px" baseProfile="basic"><path fill="#f9dbd2" d="M50,12c-20.99,0-38,17.01-38,38s17.01,38,38,38s38-17.01,38-38S70.99,12,50,12z"/><path fill="#f1bc19" d="M78,13c-0.55,0-1,0.45-1,1s0.45,1,1,1s1-0.45,1-1S78.55,13,78,13z"/><path fill="#f1bc19" d="M84,12c-2.21,0-4,1.79-4,4s1.79,4,4,4s4-1.79,4-4S86.21,12,84,12z"/><path fill="#ee3e54" d="M35,20c-1.1,0-2,0.9-2,2s0.9,2,2,2s2-0.9,2-2S36.1,20,35,20z"/><path fill="#fbcd59" d="M85,77c-1.1,0-2,0.9-2,2s0.9,2,2,2s2-0.9,2-2S86.1,77,85,77z"/><path fill="#ee3e54" d="M26,82c-1.1,0-2,0.9-2,2s0.9,2,2,2s2-0.9,2-2S27.1,82,26,82z"/><path fill="#fff" d="M39,72c-0.55,0-1,0.45-1,1s0.45,1,1,1s1-0.45,1-1S39.55,72,39,72z"/><path fill="#fff" d="M61,19c-0.55,0-1,0.45-1,1s0.45,1,1,1s1-0.45,1-1S61.55,19,61,19z"/><path fill="#f1bc19" d="M93,24c-0.55,0-1,0.45-1,1s0.45,1,1,1s1-0.45,1-1S93.55,24,93,24z"/><circle cx="13.41" cy="75.86" r="4" fill="#fbcd59"/><circle cx="54.48" cy="82.52" r="2.48" fill="#fff"/><path fill="#472b29" d="M69.5,49.38c-0.28,0-0.5-0.22-0.5-0.5V45c0-0.28,0.22-0.5,0.5-0.5S70,44.72,70,45v3.88	C70,49.16,69.78,49.38,69.5,49.38z"/><path fill="#472b29" d="M69.5,46.38c-0.28,0-0.5-0.22-0.5-0.5V42c0-0.28,0.22-0.5,0.5-0.5S70,41.72,70,42v3.88	C70,46.16,69.78,46.38,69.5,46.38z"/><path fill="#e4e4f9" d="M75.52,71c-0.66,2.64-1.67,3.65-2.64,4.61c-4.92,4.92-18.19,1.65-25.71-4.61	c0,0-26.37-9.23-27.93-37.32c-0.91-12.28-4.37-16.07-4.37-16.07s3.3,0.66,13.43,10.22s14.5,25.63,14.5,25.63l0.05,0.21	c2.31-4.48,5.95-7.15,9.91-8.4c-2.64-3.68-6.3-9.93-5.69-15.62c0.06-0.51,0.65-0.76,1.06-0.45c1.52,1.13,4.77,3.8,8.16,7.93	c-0.71-5.17-2.34-11.82-6-17.74c-0.37-0.59,0.34-1.28,0.92-0.9c5.4,3.57,13.38,12.7,16.32,28.15c0.42,0.23,0.82,0.48,1.2,0.74	c0.15-3.22,0.21-8.12-0.51-11.69c-0.14-0.7,0.76-1.09,1.19-0.51c3.51,4.84,4.42,12.24,3.77,17.03c1.17,1.87,1.96,3.89,2.37,5.93	c-2.68,2.97-1.88,8.13-0.71,8.9c0,0,1.04,2.43,0.66,3.96L75.52,71z"/><path fill="#472b29" d="M65.58,78.73c-6.11,0-13.69-2.91-18.76-7.1c-1.36-0.5-12.54-4.84-20.51-15.77	c-0.23-0.31-0.16-0.75,0.15-0.98s0.75-0.16,0.98,0.15C35.5,66.08,47.28,70.31,47.4,70.35c0.08,0.03,0.15,0.07,0.22,0.12	c7.22,6.02,20.07,9.35,24.76,4.66c0.95-0.95,1.84-1.84,2.45-4.29c0.25-0.98-0.27-2.62-0.56-3.35c-0.78-0.71-1.05-2.22-1.14-2.87	c-0.12-0.96-0.35-4.18,1.66-6.66c-0.42-1.88-1.16-3.69-2.21-5.36c-0.09-0.14-0.12-0.3-0.1-0.47c0.63-4.67-0.24-11.84-3.64-16.53	c0.79,3.55,0.75,8.39,0.59,11.82c-0.01,0.25-0.16,0.48-0.38,0.59c-0.22,0.11-0.5,0.1-0.7-0.04c-0.37-0.25-0.74-0.49-1.15-0.71	c-0.18-0.1-0.31-0.28-0.35-0.48c-2.75-14.44-10.08-23.77-16.02-27.7c3.91,6.17,5.5,13.17,6.16,17.96c0.04,0.31-0.13,0.61-0.41,0.74	c-0.29,0.12-0.62,0.04-0.82-0.2c-3.46-4.22-6.77-6.87-8.04-7.81c-0.54,5.55,3.28,11.84,5.62,15.09c0.13,0.18,0.17,0.42,0.1,0.63	c-0.07,0.21-0.24,0.38-0.45,0.45c-4.17,1.32-7.46,4.11-9.5,8.05c-0.13,0.26-0.41,0.41-0.7,0.37c-0.29-0.03-0.53-0.24-0.6-0.53	l-0.05-0.21c-0.02-0.08-2.49-9.02-7.87-17.37c-0.21-0.33-0.11-0.76,0.21-0.97c0.32-0.21,0.76-0.12,0.97,0.21	c4.24,6.58,6.71,13.53,7.63,16.41c2.06-3.25,5-5.64,8.59-6.99c-2.85-4.14-5.85-9.92-5.28-15.33c0.06-0.5,0.36-0.91,0.82-1.1	s0.97-0.13,1.36,0.17c1.1,0.82,3.72,2.91,6.66,6.16c-0.81-4.41-2.4-10-5.51-15.04c-0.34-0.54-0.25-1.23,0.21-1.68	s1.15-0.52,1.69-0.17c6.09,4.02,13.57,13.46,16.5,27.95c0.1-3.17,0.04-7.06-0.55-10.02c-0.13-0.64,0.2-1.26,0.79-1.52	c0.59-0.26,1.27-0.07,1.65,0.45c3.57,4.92,4.53,12.34,3.93,17.29c1.13,1.86,1.91,3.86,2.33,5.95c0.04,0.22-0.02,0.44-0.17,0.61	c-1.48,1.64-1.77,4.08-1.55,5.82c0.16,1.29,0.55,1.92,0.71,2.03c0.11,0.08,0.2,0.18,0.26,0.31c0.12,0.27,1.12,2.69,0.7,4.4	c-0.71,2.83-1.83,3.95-2.82,4.94c-1.82,1.82-4.6,2.61-7.79,2.61L65.58,78.73z"/><path fill="#472b29" d="M24.48,52.45c-0.24,0-0.48-0.13-0.61-0.35c-3.17-5.52-4.96-11.7-5.33-18.38	c-0.87-11.79-4.16-15.6-4.19-15.64c-0.2-0.22-0.24-0.55-0.09-0.82c0.15-0.26,0.45-0.4,0.74-0.34c0.14,0.03,3.61,0.81,13.78,10.39	c1.61,1.52,3.17,3.29,4.64,5.26c0.23,0.31,0.17,0.75-0.14,0.98c-0.31,0.23-0.75,0.17-0.98-0.14c-1.42-1.91-2.93-3.62-4.48-5.08	c-5.66-5.33-9.16-7.86-11.11-9.04c1.13,2.32,2.66,6.74,3.22,14.33c0.36,6.47,2.09,12.44,5.15,17.77c0.19,0.34,0.08,0.76-0.26,0.96	c-0.11,0.06-0.23,0.09-0.35,0.09L24.48,52.45z"/><path fill="#333232" d="M72.96,64.34c0.13,1.61,0.6,2.76,1.26,2.81c0.9,0.07,1.79-1.96,2-4.53s-0.35-4.72-1.25-4.79	s-1.79,1.96-2,4.53 M72.97,62.36c-0.06,0.7-0.06,1.37,0,1.97"/><path fill="#333232" d="M75.19,70.22c0.33,0.78-2.5,2.59-3.63,2.76l-1.98-0.66c-1.98-0.66-2.62-1.35-2.64-1.91	c-0.02-0.91,1.81-1.69,4.08-1.75c2.27-0.06,3.81,0.71,4.16,1.55L75.19,70.22z"/><path fill="#333232" d="M62.43,67.9c-0.11,0.25-0.37,0.41-0.64,0.39c-1.19-0.08-4.46-0.48-6.74-2.43	c-2.29-1.89-2.61-5.28-0.72-7.56c1.89-2.29,6.67-2.67,8.66-0.47c3.19,3.53,0.1,8.58-0.56,10.08V67.9z"/><path fill="#472b29" d="M71.56,73.48c-0.05,0-0.11,0-0.16-0.03l-1.98-0.66c-1.94-0.65-2.95-1.44-2.98-2.36	c-0.02-0.7,0.57-1.32,1.65-1.74c0.26-0.1,0.55,0.03,0.65,0.28c0.1,0.26-0.03,0.55-0.28,0.65c-0.7,0.27-1.02,0.6-1.01,0.78	c0,0.06,0.09,0.71,2.29,1.44l1.86,0.62c1.06-0.23,3.05-1.64,3.12-2.12c-0.2-0.45-1.39-1.23-3.67-1.18c-0.28,0.04-0.5-0.21-0.51-0.49	c0-0.28,0.21-0.51,0.49-0.51c2.26-0.04,4.14,0.69,4.63,1.86c0.08,0.19,0.13,0.5-0.1,0.91c-0.57,1.01-2.82,2.38-3.91,2.54	c-0.02,0-0.05,0-0.07,0L71.56,73.48z"/><path fill="#472b29" d="M61.83,68.79c0,0-0.05,0-0.08,0c-1.32-0.09-4.66-0.52-7.03-2.55c-2.49-2.06-2.84-5.76-0.78-8.26	c1.04-1.26,2.95-2.07,4.98-2.11c1.85-0.06,3.46,0.55,4.43,1.62c0.09,0.09,0.17,0.19,0.25,0.29c0.17,0.22,0.14,0.53-0.08,0.7	c-0.22,0.17-0.53,0.14-0.7-0.08c-0.07-0.08-0.13-0.16-0.21-0.24c-0.77-0.86-2.12-1.33-3.67-1.3c-1.75,0.04-3.37,0.71-4.24,1.75	c-1.71,2.07-1.41,5.15,0.66,6.86c2.15,1.84,5.23,2.23,6.45,2.32c0.07,0,0.12-0.03,0.15-0.09c0.07-0.17,0.18-0.38,0.3-0.63	c0.79-1.61,2.26-4.6,1.35-7.23c-0.09-0.26,0.05-0.55,0.31-0.64s0.55,0.05,0.64,0.31c1.05,3.02-0.6,6.38-1.4,8	c-0.12,0.24-0.21,0.44-0.28,0.6c-0.18,0.42-0.6,0.69-1.05,0.69L61.83,68.79z"/><circle cx="60.5" cy="61.5" r="2.5" fill="#fdfcef"/><ellipse cx="74" cy="61.5" fill="#fdfcef" rx="1" ry="1.5"/><path fill="#472b29" d="M60.5,64.5c-1.65,0-3-1.35-3-3s1.35-3,3-3s3,1.35,3,3S62.15,64.5,60.5,64.5z M60.5,59.5	c-1.1,0-2,0.9-2,2s0.9,2,2,2s2-0.9,2-2S61.6,59.5,60.5,59.5z"/><path fill="#472b29" d="M74.25,63.5c-0.72,0-1.25-0.84-1.25-2s0.53-2,1.25-2s1.25,0.84,1.25,2S74.97,63.5,74.25,63.5z M74.21,60.49c0,0-0.21,0.41-0.21,1.01s0.21,0.96,0.29,1.01c0-0.05,0.21-0.41,0.21-1.01S74.29,60.54,74.21,60.49z"/><path fill="#472b29" d="M74.4,67.67c0,0-0.05,0-0.08,0c-0.87-0.07-1.45-1.26-1.59-3.26c-0.02-0.28,0.19-0.51,0.47-0.53	c0.29-0.01,0.51,0.19,0.53,0.47c0.11,1.67,0.53,2.3,0.67,2.33c0.29-0.03,1.1-1.46,1.32-4.08c0.21-2.62-0.36-4.16-0.65-4.24	c-0.3,0.03-1.1,1.46-1.32,4.08c-0.02,0.28-0.25,0.47-0.54,0.46c-0.28-0.02-0.48-0.26-0.46-0.54c0.1-1.29,0.36-2.5,0.73-3.41	c0.56-1.38,1.21-1.64,1.66-1.59c0.45,0.04,1.05,0.38,1.39,1.83c0.22,0.95,0.29,2.19,0.18,3.48C76.51,65.1,75.71,67.67,74.4,67.67z"/></svg>